<svg width="23" height="22" viewBox="0 0 23 22" fill="none" xmlns="http://www.w3.org/2000/svg">
<path d="M11.6387 18.2917C11.5193 18.3451 11.387 18.3748 11.2478 18.3748C11.1085 18.3748 10.9762 18.3451 10.8569 18.2917H10.866H10.8756H10.8852H10.8948H10.9044H10.9139H10.9235H10.9331H10.9427H10.9523H10.9619H10.9715H10.9811H10.9907H11.0003H11.0099H11.0195H11.0291H11.0388H11.0484H11.058H11.0676H11.0772H11.0868H11.0964H11.106H11.1156H11.1252H11.1348H11.1444H11.154H11.1636H11.1732H11.1828H11.1924H11.202H11.2116H11.2212H11.2307H11.2403H11.2499H11.2594H11.269H11.2786H11.2881H11.2977H11.3072H11.3168H11.3263H11.3358H11.3453H11.3549H11.3644H11.3739H11.3834H11.3929H11.4023H11.4118H11.4213H11.4308H11.4402H11.4497H11.4591H11.4685H11.478H11.4874H11.4968H11.5062H11.5156H11.525H11.5343H11.5437H11.553H11.5624H11.5717H11.581H11.5903H11.5996H11.6089H11.6182H11.6275H11.6367H11.6387Z" stroke="#666666" stroke-width="1.75024"/>
<path d="M11.2478 4.58337C8.71654 4.58337 6.66451 6.6354 6.66451 9.16671V12.8334L4.83118 15.5834H6.66451H15.8312H17.6645L15.8312 12.8334V9.16671C15.8312 6.6354 13.7791 4.58337 11.2478 4.58337ZM11.2478 4.58337V1.83337" stroke="#666666" stroke-width="1.75024" stroke-linejoin="round"/>
</svg>
