<svg width="237" height="143" viewBox="0 0 237 143" fill="none" xmlns="http://www.w3.org/2000/svg">
<g filter="url(#filter0_d_652_1333)">
<path d="M132.743 40.1851L113.293 65.3382C112.682 66.2547 111.46 66.3565 110.543 65.6437L86.3068 46.6006C85.3902 45.9896 85.2884 44.7676 86.0012 43.8511L111.256 11.7733C111.867 10.8568 113.089 10.755 114.006 11.4678L131.623 25.3173L132.743 40.1851Z" fill="url(#paint0_linear_652_1333)"/>
</g>
<path d="M124.495 28.0664L112.784 18.9013C112.58 18.6977 112.478 18.3922 112.682 17.9848C112.885 17.7812 113.191 17.6793 113.598 17.883L125.309 27.0481C125.513 27.2517 125.615 27.5573 125.411 27.9646C125.106 28.2701 124.8 28.2701 124.495 28.0664Z" fill="#CED6E2"/>
<path d="M115.125 25.2152L110.746 21.651C110.543 21.4473 110.441 21.1418 110.644 20.7345C110.848 20.429 111.154 20.429 111.561 20.6327L115.94 24.1969C116.144 24.4005 116.245 24.706 116.042 25.1134C115.736 25.4189 115.329 25.4189 115.125 25.2152Z" fill="#CED6E2"/>
<path d="M131.623 25.3179L126.226 32.1408C125.411 33.1591 125.717 34.5848 126.633 35.2976L132.845 40.1857" fill="#CED6E2"/>
<path d="M125.207 41.7127L119.097 37.0284L112.783 32.0385L106.979 27.4559C106.368 26.9468 105.349 27.0486 104.84 27.7614L96.4898 38.3522C95.9807 38.9632 96.0825 39.9816 96.6935 40.4907L115.024 54.9512C115.635 55.4604 116.653 55.3585 117.162 54.6457L125.513 44.0549C126.022 43.1384 125.92 42.3237 125.207 41.7127ZM105.859 41.6109L107.692 39.1669L113.292 43.5458L111.459 45.9898L105.859 41.6109ZM110.95 46.7026L109.219 48.943L103.618 44.5641L105.349 42.3237L110.95 46.7026ZM115.737 40.4907L113.903 42.9347L108.303 38.5559L110.136 36.1118L115.737 40.4907ZM110.645 35.399L112.681 32.955L118.282 37.3339L116.449 39.7779L110.645 35.399ZM120.828 48.332L114.616 43.4439L116.449 40.9999L122.661 45.8879L120.828 48.332ZM107.59 37.9449L101.582 33.2605L103.415 30.8165L109.423 35.5008L107.59 37.9449ZM100.971 33.9733L106.979 38.6577L105.146 41.1017L99.1375 36.4173L100.971 33.9733ZM114.107 44.1568L120.319 49.0448L118.486 51.4888L112.274 46.6008L114.107 44.1568ZM124.8 43.3421L123.272 45.2769L117.06 40.3889L118.893 37.9449L124.596 42.4256C125.003 42.6292 125.003 43.0366 124.8 43.3421ZM106.368 27.9651L111.867 32.344L110.034 34.788L104.026 30.1036L105.553 28.1688C105.757 27.8633 106.164 27.8633 106.368 27.9651ZM97.2027 38.7595L98.5265 37.1302L104.535 41.8146L102.804 44.0549L97.2027 39.676C96.999 39.4724 96.999 38.9632 97.2027 38.7595ZM115.635 53.9329L109.932 49.4521L111.663 47.2118L117.875 52.0998L116.449 53.831C116.246 54.2384 115.838 54.2384 115.635 53.9329Z" fill="#CED6E2"/>
<path d="M180.144 56.2554H70.4611C68.2054 56.2554 66.2317 58.2297 66.2317 60.4861V131.281C66.2317 133.537 68.2054 132.691 70.4611 132.691H179.862C182.117 132.691 184.091 133.537 184.091 131.281V60.4861C184.373 58.2297 182.399 56.2554 180.144 56.2554Z" fill="#D5DDEA"/>
<path d="M176.457 60.3677H74.384C72.2848 60.3677 70.448 62.1352 70.448 64.1552V127.534C70.448 129.554 72.2848 128.796 74.384 128.796H176.195C178.294 128.796 180.131 129.554 180.131 127.534V64.1552C180.393 62.1352 178.557 60.3677 176.457 60.3677Z" fill="white"/>
<path d="M200.726 128.742V130.999C200.726 133.537 198.471 135.793 195.933 135.793H54.6712C52.1336 135.793 49.8779 133.537 49.8779 130.999V128.742H200.726Z" fill="#D5DDEA"/>
<path d="M138.414 128.742V129.588C138.414 130.999 137.286 132.409 135.594 132.409H114.729C113.319 132.409 111.909 131.281 111.909 129.588V128.742H138.414Z" fill="#E9EFF8"/>
<path d="M142.894 99.3104C142.534 100.843 141.993 102.465 141.362 103.817C139.65 107.152 136.945 109.766 133.61 111.479C130.185 113.191 126.129 113.912 122.073 113.011C112.519 111.028 106.39 101.654 108.373 92.0995C110.356 82.5452 119.639 76.3259 129.194 78.399C132.619 79.1201 135.593 80.8326 138.117 83.1761C142.354 87.4125 144.156 93.5417 142.894 99.3104Z" fill="url(#paint1_linear_652_1333)"/>
<path d="M131.267 94.1724H127.211V90.1163C127.211 89.3051 126.58 88.584 125.679 88.584C124.868 88.584 124.146 89.2149 124.146 90.1163V94.1724H120.09C119.279 94.1724 118.558 94.8033 118.558 95.7047C118.558 96.606 119.189 97.237 120.09 97.237H124.146V101.293C124.146 102.104 124.777 102.825 125.679 102.825C126.49 102.825 127.211 102.194 127.211 101.293V97.237H131.267C132.078 97.237 132.799 96.606 132.799 95.7047C132.799 94.8033 132.078 94.1724 131.267 94.1724Z" fill="white"/>
<g filter="url(#filter1_d_652_1333)">
<path d="M200.452 92.2229L169.259 109.108C167.456 110.074 165.219 109.421 164.234 107.614L148.114 77.7467C147.15 75.9418 147.802 73.7022 149.608 72.7156L180.8 55.8302C182.603 54.8646 184.84 55.5173 185.825 57.3245L201.966 87.1942C202.931 88.999 202.255 91.2573 200.452 92.2229Z" fill="url(#paint2_linear_652_1333)"/>
</g>
<path d="M196.312 88.684L168.887 103.529C168.119 103.952 167.156 103.654 166.733 102.885L153.406 78.1881C152.983 77.4196 153.281 76.4558 154.049 76.0323L181.474 61.1874C182.242 60.7639 183.205 61.0623 183.628 61.8308L196.955 86.5282C197.378 87.2967 197.08 88.2605 196.312 88.684Z" fill="white"/>
<path d="M178.102 86.4614L168.089 91.8782L170.02 83.5014L178.102 86.4614Z" fill="#B0B7C4"/>
<path d="M186.38 81.9748L171.967 89.7858L174.754 77.7282L186.38 81.9748Z" fill="#CED6E2"/>
<path d="M166.42 82.3348C167.599 82.4664 168.662 81.6161 168.794 80.4357C168.925 79.2553 168.076 78.1917 166.897 78.0601C165.718 77.9285 164.655 78.7787 164.524 79.9591C164.392 81.1396 165.241 82.2032 166.42 82.3348Z" fill="#B0B7C4"/>
<g filter="url(#filter2_d_652_1333)">
<path d="M203.87 98.6534L168.408 99.3549C166.363 99.3861 164.674 97.7802 164.628 95.7225L163.999 61.7884C163.97 59.7424 165.577 58.0514 167.633 58.0026L203.096 57.3012C205.141 57.27 206.83 58.8759 206.876 60.9335L207.523 94.8793C207.552 96.9253 205.916 98.6222 203.87 98.6534Z" fill="url(#paint3_linear_652_1333)"/>
</g>
<path d="M201.814 93.6097L170.635 94.225C169.758 94.2492 169.04 93.5426 169.016 92.6658L168.498 64.6066C168.475 63.7297 169.182 63.01 170.058 62.9858L201.238 62.3704C202.114 62.3462 202.833 63.0528 202.856 63.9296L203.375 91.9888C203.398 92.8657 202.691 93.5854 201.814 93.6097Z" fill="white"/>
<path d="M186.652 83.284L175.269 83.5057L180.827 76.9471L186.652 83.284Z" fill="#989FB0"/>
<path d="M196.066 83.094L179.675 83.4258L187.681 73.9887L196.066 83.094Z" fill="#CED6E2"/>
<path d="M178.162 74.261C179.149 74.9186 180.484 74.6503 181.142 73.6618C181.8 72.6732 181.534 71.3387 180.546 70.681C179.559 70.0234 178.225 70.2916 177.566 71.2802C176.908 72.2688 177.175 73.6033 178.162 74.261Z" fill="#989FB0"/>
<path d="M204.233 99.9129L196.71 102.232L202.701 111.093L197.819 114.394L191.828 105.534L186.874 111.65L182.593 86.6146L204.233 99.9129Z" fill="url(#paint4_linear_652_1333)"/>
<g filter="url(#filter3_d_652_1333)">
<path d="M54.3418 62.4866L74.2533 85.4516C74.9235 86.2446 74.7783 87.4198 73.9679 88.1072L50.8363 107.729C50.026 108.416 48.8147 108.33 48.175 107.573L22.9534 77.7252C22.2832 76.9322 22.4284 75.7569 23.2387 75.0695L39.9981 60.8531L54.3418 62.4866Z" fill="url(#paint5_linear_652_1333)"/>
</g>
<path d="M39.9636 60.6021L45.4475 67.0793C46.2177 67.989 47.6345 68.039 48.5442 67.2688L54.2937 62.4011" fill="#CED6E2"/>
<g clip-path="url(#clip0_652_1333)">
<path d="M34.7431 65.5873L33.345 66.771L34.1586 67.7321L35.5568 66.5483L34.7431 65.5873Z" fill="#CED6E2"/>
<path d="M36.9684 65.3534L35.5703 66.5371L36.384 67.4982L37.7821 66.3145L36.9684 65.3534Z" fill="#CED6E2"/>
<path d="M36.3591 67.496L34.9609 68.6797L35.7746 69.6407L37.1727 68.457L36.3591 67.496Z" fill="#CED6E2"/>
<path d="M38.5844 67.2616L37.1863 68.4453L37.9999 69.4064L39.3981 68.2227L38.5844 67.2616Z" fill="#CED6E2"/>
<path d="M37.9863 69.4178L36.5881 70.6016L37.4018 71.5626L38.7999 70.3789L37.9863 69.4178Z" fill="#CED6E2"/>
<path d="M40.2116 69.184L38.8135 70.3677L39.6271 71.3287L41.0253 70.145L40.2116 69.184Z" fill="#CED6E2"/>
<path d="M39.6022 71.3265L38.2041 72.5103L39.0178 73.4713L40.4159 72.2876L39.6022 71.3265Z" fill="#CED6E2"/>
<path d="M41.8276 71.0922L40.4294 72.2759L41.2431 73.2369L42.6412 72.0532L41.8276 71.0922Z" fill="#CED6E2"/>
<path d="M41.2294 73.2489L39.8313 74.4326L40.645 75.3937L42.0431 74.21L41.2294 73.2489Z" fill="#CED6E2"/>
<path d="M43.455 73.0145L42.0569 74.1982L42.8706 75.1593L44.2687 73.9756L43.455 73.0145Z" fill="#CED6E2"/>
<path d="M42.8454 75.1571L41.4473 76.3408L42.2609 77.3019L43.6591 76.1182L42.8454 75.1571Z" fill="#CED6E2"/>
<path d="M45.0707 74.9232L43.6726 76.1069L44.4863 77.068L45.8844 75.8843L45.0707 74.9232Z" fill="#CED6E2"/>
<path d="M44.4728 77.0795L43.0747 78.2632L43.8884 79.2242L45.2865 78.0405L44.4728 77.0795Z" fill="#CED6E2"/>
<path d="M46.6867 76.8319L45.2886 78.0156L46.1022 78.9767L47.5004 77.793L46.6867 76.8319Z" fill="#CED6E2"/>
<path d="M46.0886 78.9882L44.6904 80.1719L45.5041 81.1329L46.9022 79.9492L46.0886 78.9882Z" fill="#CED6E2"/>
<path d="M48.3139 78.7538L46.9158 79.9375L47.7294 80.8986L49.1276 79.7148L48.3139 78.7538Z" fill="#CED6E2"/>
<path d="M46.3179 82.0938L50.1226 86.5877L52.9325 84.2088L49.1277 79.7148L46.3179 82.0938ZM52.1564 84.1454L50.1882 85.8118L49.088 84.5124L51.0562 82.846L52.1564 84.1454Z" fill="#CED6E2"/>
<path d="M52.6659 96.2798L52.5964 93.9682C52.6052 93.5657 52.6056 93.2634 52.6258 92.8744L52.6144 92.8609L51.0805 94.1595L50.3585 93.3067L53.2226 90.8818L53.7727 91.5316L53.8391 93.7295C53.8439 94.1205 53.8508 94.4865 53.8077 94.8483L53.8191 94.8619L55.5023 93.4368L56.2358 94.3031L53.1816 96.8889L52.6659 96.2798Z" fill="#CED6E2"/>
<path d="M54.4338 88.1841C54.6859 88.4819 54.6615 88.9209 54.3085 89.2197C53.9692 89.507 53.5321 89.4587 53.28 89.1609C53.0028 88.8611 53.0273 88.4221 53.3803 88.1233C53.7446 87.838 54.1702 87.8728 54.4338 88.1841ZM57.0911 93.5798L54.1459 90.1011L55.2318 89.1817L58.177 92.6604L57.0911 93.5798Z" fill="#CED6E2"/>
<path d="M57.0859 89.61C56.6962 89.1498 56.3503 88.7687 56.0732 88.4689L57.0098 87.6759L57.4766 88.1173L57.4902 88.1058C57.4387 87.5219 57.6604 86.9856 58.1763 86.5489C58.9364 85.9053 60.1902 85.9825 61.13 87.0925C62.2072 88.3648 61.9106 89.6385 61.1233 90.305C60.7025 90.6613 60.2277 90.7612 59.8815 90.6825L59.8679 90.694L61.3348 92.4266L60.2489 93.346L57.0859 89.61ZM58.8709 89.5163C58.9396 89.5976 59.022 89.6673 59.0928 89.7235C59.4128 89.9638 59.8541 89.962 60.1663 89.6977C60.6414 89.2955 60.5805 88.6731 60.0763 88.0775C59.6064 87.5225 59.0068 87.3097 58.5182 87.7235C58.206 87.9878 58.1293 88.4478 58.3365 88.8301C58.3687 88.8957 58.4125 88.9749 58.4698 89.0426L58.8709 89.5163Z" fill="#CED6E2"/>
</g>
<defs>
<filter id="filter0_d_652_1333" x="63.5334" y="0" width="91.2097" height="99.1113" filterUnits="userSpaceOnUse" color-interpolation-filters="sRGB">
<feFlood flood-opacity="0" result="BackgroundImageFix"/>
<feColorMatrix in="SourceAlpha" type="matrix" values="0 0 0 0 0 0 0 0 0 0 0 0 0 0 0 0 0 0 127 0" result="hardAlpha"/>
<feOffset dy="11"/>
<feGaussianBlur stdDeviation="11"/>
<feColorMatrix type="matrix" values="0 0 0 0 0.397708 0 0 0 0 0.47749 0 0 0 0 0.575 0 0 0 0.27 0"/>
<feBlend mode="normal" in2="BackgroundImageFix" result="effect1_dropShadow_652_1333"/>
<feBlend mode="normal" in="SourceGraphic" in2="effect1_dropShadow_652_1333" result="shape"/>
</filter>
<filter id="filter1_d_652_1333" x="125.67" y="44.3848" width="98.7356" height="98.1689" filterUnits="userSpaceOnUse" color-interpolation-filters="sRGB">
<feFlood flood-opacity="0" result="BackgroundImageFix"/>
<feColorMatrix in="SourceAlpha" type="matrix" values="0 0 0 0 0 0 0 0 0 0 0 0 0 0 0 0 0 0 127 0" result="hardAlpha"/>
<feOffset dy="11"/>
<feGaussianBlur stdDeviation="11"/>
<feColorMatrix type="matrix" values="0 0 0 0 0.397708 0 0 0 0 0.47749 0 0 0 0 0.575 0 0 0 0.27 0"/>
<feBlend mode="normal" in2="BackgroundImageFix" result="effect1_dropShadow_652_1333"/>
<feBlend mode="normal" in="SourceGraphic" in2="effect1_dropShadow_652_1333" result="shape"/>
</filter>
<filter id="filter2_d_652_1333" x="141.998" y="46.3008" width="87.5249" height="86.0547" filterUnits="userSpaceOnUse" color-interpolation-filters="sRGB">
<feFlood flood-opacity="0" result="BackgroundImageFix"/>
<feColorMatrix in="SourceAlpha" type="matrix" values="0 0 0 0 0 0 0 0 0 0 0 0 0 0 0 0 0 0 127 0" result="hardAlpha"/>
<feOffset dy="11"/>
<feGaussianBlur stdDeviation="11"/>
<feColorMatrix type="matrix" values="0 0 0 0 0.397708 0 0 0 0 0.47749 0 0 0 0 0.575 0 0 0 0.27 0"/>
<feBlend mode="normal" in2="BackgroundImageFix" result="effect1_dropShadow_652_1333"/>
<feBlend mode="normal" in="SourceGraphic" in2="effect1_dropShadow_652_1333" result="shape"/>
</filter>
<filter id="filter3_d_652_1333" x="0.529297" y="49.853" width="96.1482" height="91.3433" filterUnits="userSpaceOnUse" color-interpolation-filters="sRGB">
<feFlood flood-opacity="0" result="BackgroundImageFix"/>
<feColorMatrix in="SourceAlpha" type="matrix" values="0 0 0 0 0 0 0 0 0 0 0 0 0 0 0 0 0 0 127 0" result="hardAlpha"/>
<feOffset dy="11"/>
<feGaussianBlur stdDeviation="11"/>
<feColorMatrix type="matrix" values="0 0 0 0 0.397708 0 0 0 0 0.47749 0 0 0 0 0.575 0 0 0 0.27 0"/>
<feBlend mode="normal" in2="BackgroundImageFix" result="effect1_dropShadow_652_1333"/>
<feBlend mode="normal" in="SourceGraphic" in2="effect1_dropShadow_652_1333" result="shape"/>
</filter>
<linearGradient id="paint0_linear_652_1333" x1="109.123" y1="9.72522" x2="109.123" y2="66.7056" gradientUnits="userSpaceOnUse">
<stop stop-color="#FDFEFF"/>
<stop offset="0.9964" stop-color="#ECF0F5"/>
</linearGradient>
<linearGradient id="paint1_linear_652_1333" x1="107.984" y1="95.7045" x2="143.296" y2="95.7045" gradientUnits="userSpaceOnUse">
<stop stop-color="#00EE00"/>
<stop offset="1" stop-color="#007500"/>
</linearGradient>
<linearGradient id="paint2_linear_652_1333" x1="178.242" y1="53.5864" x2="171.871" y2="110.668" gradientUnits="userSpaceOnUse">
<stop stop-color="#FDFEFF"/>
<stop offset="0.9964" stop-color="#ECF0F5"/>
</linearGradient>
<linearGradient id="paint3_linear_652_1333" x1="201.852" y1="54.1342" x2="170.014" y2="101.938" gradientUnits="userSpaceOnUse">
<stop stop-color="#FDFEFF"/>
<stop offset="0.9964" stop-color="#ECF0F5"/>
</linearGradient>
<linearGradient id="paint4_linear_652_1333" x1="182.741" y1="105.556" x2="200.111" y2="93.8109" gradientUnits="userSpaceOnUse">
<stop stop-color="#B0BACC"/>
<stop offset="1" stop-color="#969EAE"/>
</linearGradient>
<linearGradient id="paint5_linear_652_1333" x1="34.1577" y1="64.5104" x2="62.7551" y2="98.2232" gradientUnits="userSpaceOnUse">
<stop stop-color="#FDFEFF"/>
<stop offset="0.9964" stop-color="#ECF0F5"/>
</linearGradient>
<clipPath id="clip0_652_1333">
<rect width="12.3966" height="36.7131" fill="white" transform="translate(30.0464 69.5635) rotate(-40.2525)"/>
</clipPath>
</defs>
</svg>
