<svg width="17" height="16" viewBox="0 0 17 16" fill="none" xmlns="http://www.w3.org/2000/svg">
<path fill-rule="evenodd" clip-rule="evenodd" d="M10.1387 4.85816C10.2445 4.5055 10.0444 4.13385 9.69173 4.02805C9.33907 3.92225 8.96741 4.12237 8.86161 4.47503L6.86161 11.1417C6.75581 11.4944 6.95594 11.866 7.3086 11.9718C7.66126 12.0776 8.03292 11.8775 8.13871 11.5248L10.1387 4.85816ZM5.63823 4.86186C5.89858 5.12221 5.89858 5.54432 5.63823 5.80467L3.44297 7.99993L5.63823 10.1952C5.89858 10.4555 5.89858 10.8777 5.63823 11.138C5.37788 11.3984 4.95577 11.3984 4.69543 11.138L2.02876 8.47134C1.76841 8.21099 1.76841 7.78888 2.02876 7.52853L4.69543 4.86186C4.95577 4.60151 5.37788 4.60151 5.63823 4.86186ZM11.3621 4.86186C11.1017 5.12221 11.1017 5.54432 11.3621 5.80467L13.5574 7.99993L11.3621 10.1952C11.1017 10.4555 11.1017 10.8777 11.3621 11.138C11.6224 11.3984 12.0446 11.3984 12.3049 11.138L14.9716 8.47134C15.2319 8.21099 15.2319 7.78888 14.9716 7.52853L12.3049 4.86186C12.0446 4.60151 11.6224 4.60151 11.3621 4.86186Z" fill="#28668B"/>
</svg>
