<svg width="16" height="16" viewBox="0 0 16 16" fill="none" xmlns="http://www.w3.org/2000/svg">
<path fill-rule="evenodd" clip-rule="evenodd" d="M1.33301 7.99992C1.33301 11.6818 4.31778 14.6666 7.99967 14.6666C11.6816 14.6666 14.6663 11.6818 14.6663 7.99992C14.6663 4.31802 11.6816 1.33325 7.99967 1.33325C4.31778 1.33325 1.33301 4.31802 1.33301 7.99992ZM2.66634 7.99992C2.66634 5.0544 5.05416 2.66659 7.99967 2.66659C10.9452 2.66659 13.333 5.0544 13.333 7.99992C13.333 10.9454 10.9452 13.3333 7.99967 13.3333C5.05416 13.3333 2.66634 10.9454 2.66634 7.99992ZM5.66634 9.99992C5.66634 10.3681 5.96482 10.6666 6.33301 10.6666C6.7012 10.6666 6.99967 10.3681 6.99967 9.99992V5.99992C6.99967 5.63173 6.7012 5.33325 6.33301 5.33325C5.96482 5.33325 5.66634 5.63173 5.66634 5.99992L5.66634 9.99992ZM9.66634 10.6666C9.29815 10.6666 8.99967 10.3681 8.99967 9.99992V5.99992C8.99967 5.63173 9.29815 5.33325 9.66634 5.33325C10.0345 5.33325 10.333 5.63173 10.333 5.99992V9.99992C10.333 10.3681 10.0345 10.6666 9.66634 10.6666Z" fill="#888888"/>
</svg>
