<svg width="16" height="16" viewBox="0 0 16 16" fill="none" xmlns="http://www.w3.org/2000/svg">
<path fill-rule="evenodd" clip-rule="evenodd" d="M11.1056 8.83505C11.3827 8.5926 11.4108 8.17142 11.1684 7.89433C10.9259 7.61724 10.5047 7.58916 10.2276 7.83161L8.66665 9.19749V2.66667C8.66665 2.29848 8.36817 2 7.99998 2C7.63179 2 7.33331 2.29848 7.33331 2.66667V9.19749L5.77232 7.83161C5.49523 7.58916 5.07405 7.61724 4.8316 7.89433C4.58914 8.17142 4.61722 8.5926 4.89431 8.83505L7.56098 11.1684C7.81233 11.3883 8.18763 11.3883 8.43898 11.1684L11.1056 8.83505ZM2.66665 10.6667C2.66665 10.2985 2.36817 10 1.99998 10C1.63179 10 1.33331 10.2985 1.33331 10.6667V12.6667C1.33331 13.403 1.93027 14 2.66665 14H13.3333C14.0697 14 14.6666 13.403 14.6666 12.6667V10.6667C14.6666 10.2985 14.3682 10 14 10C13.6318 10 13.3333 10.2985 13.3333 10.6667V12.6667H2.66665V10.6667Z" fill="#575859"/>
</svg>