<svg width="18" height="18" viewBox="0 0 18 18" fill="none" xmlns="http://www.w3.org/2000/svg">
<path fill-rule="evenodd" clip-rule="evenodd" d="M11.4529 2.26996C12.3279 2.15806 13.2133 2.5159 14.1128 3.36231L14.1139 3.36329C15.0164 4.21686 15.4273 5.08273 15.3657 5.96464C15.3061 6.81683 14.8121 7.53811 14.2487 8.13327M14.2487 8.13327L8.0943 14.6475C7.92079 14.8365 7.68717 14.9965 7.4657 15.1149C7.24138 15.2348 6.98191 15.3375 6.73832 15.3808L6.73457 15.3815L4.32043 15.7938C3.73501 15.8947 3.17364 15.7484 2.77373 15.3692C2.37439 14.9905 2.19793 14.4382 2.2633 13.8499L2.26349 13.8482L2.5422 11.4076C2.57457 11.1649 2.66473 10.9021 2.77101 10.6742C2.87691 10.4472 3.0214 10.2064 3.19238 10.0243L3.19348 10.0232L9.35098 3.50568C9.91463 2.91028 10.6073 2.37809 11.4529 2.26996M10.1684 4.27868L4.01234 10.7946C3.95086 10.8602 3.86641 10.9871 3.79059 11.1497C3.71614 11.3094 3.67143 11.457 3.65802 11.552L3.38142 13.9741L3.38133 13.9749C3.34945 14.2636 3.43918 14.4498 3.54786 14.5529C3.65609 14.6555 3.84471 14.7342 4.12929 14.6852L4.13015 14.685L6.54298 14.2729C6.63694 14.2559 6.7817 14.2049 6.93527 14.1228C7.09096 14.0396 7.20807 13.9498 7.2667 13.8855L7.27342 13.8781L13.431 7.36068C13.9325 6.83093 14.2111 6.34819 14.2434 5.88619C14.2736 5.45385 14.0959 4.89491 13.3415 4.18125C12.5913 3.4755 12.0254 3.33091 11.5956 3.38587C11.1363 3.44461 10.6696 3.74928 10.1684 4.27868Z" fill="#111111"/>
<path fill-rule="evenodd" clip-rule="evenodd" d="M8.64577 4.42368C8.95273 4.37586 9.24033 4.58593 9.28816 4.89289C9.571 6.70835 11.0444 8.09781 12.8762 8.28231C13.1853 8.31344 13.4107 8.58925 13.3795 8.89835C13.3484 9.20744 13.0726 9.43278 12.7635 9.40165C10.4253 9.16615 8.53872 7.39061 8.17657 5.06607C8.12874 4.75911 8.33881 4.47151 8.64577 4.42368Z" fill="#111111"/>
</svg>
