<svg width="203" height="179" viewBox="0 0 203 179" fill="none" xmlns="http://www.w3.org/2000/svg">
<path d="M18.8366 40.991C22.2052 40.991 24.9361 38.2586 24.9361 34.8879C24.9361 31.5173 22.2052 28.7849 18.8366 28.7849C15.4679 28.7849 12.7371 31.5173 12.7371 34.8879C12.7371 38.2586 15.4679 40.991 18.8366 40.991Z" fill="#F1F3F9"/>
<path d="M185.77 59.6213C189.139 59.6213 191.87 56.8889 191.87 53.5183C191.87 50.1477 189.139 47.4153 185.77 47.4153C182.401 47.4153 179.671 50.1477 179.671 53.5183C179.671 56.8889 182.401 59.6213 185.77 59.6213Z" fill="#EAEEF9"/>
<path d="M31.196 20.2725C32.5258 20.2725 33.6037 19.1939 33.6037 17.8634C33.6037 16.5329 32.5258 15.4543 31.196 15.4543C29.8663 15.4543 28.7883 16.5329 28.7883 17.8634C28.7883 19.1939 29.8663 20.2725 31.196 20.2725Z" fill="#F1F3F9"/>
<path d="M178.708 33.7634C180.126 33.7634 181.276 32.6129 181.276 31.1937C181.276 29.7745 180.126 28.624 178.708 28.624C177.289 28.624 176.139 29.7745 176.139 31.1937C176.139 32.6129 177.289 33.7634 178.708 33.7634Z" fill="#F1F3F9"/>
<path d="M101.019 177.667C149.776 177.667 189.302 138.118 189.302 89.3333C189.302 40.5482 149.776 1 101.019 1C52.2624 1 12.7371 40.5482 12.7371 89.3333C12.7371 138.118 52.2624 177.667 101.019 177.667Z" fill="#F1F3F9" stroke="#D6DCE8" stroke-width="2" stroke-miterlimit="10"/>
<path d="M125.738 139.925L49.0131 170.922C47.729 171.403 46.2844 170.761 45.8029 169.637L1.66176 59.9427C1.18022 58.6579 1.82227 57.2124 2.94587 56.7306L79.6712 25.7336C80.9553 25.2518 82.3999 25.8942 82.8814 27.0185L127.023 136.552C127.665 137.997 127.023 139.443 125.738 139.925Z" fill="white" stroke="#D6DCE8" stroke-width="2" stroke-miterlimit="10"/>
<path d="M91.8699 75.0398L27.6647 100.897C27.0226 101.219 26.3806 100.897 26.0595 100.255C25.7385 99.6125 26.0595 98.9701 26.7016 98.6489L90.7463 72.7913C91.3884 72.4701 92.0304 72.7913 92.3515 73.4337C92.6725 74.0761 92.3515 74.7186 91.8699 75.0398Z" fill="#F1F3F9"/>
<path d="M94.2778 81.303L30.233 107.161C29.591 107.482 28.9489 107.161 28.6279 106.518C28.3069 105.876 28.6279 105.233 29.2699 104.912L93.3147 79.0545C93.9567 78.7333 94.5988 79.0545 94.9198 79.6969C95.2409 80.3393 94.9198 80.9818 94.2778 81.303Z" fill="#F1F3F9"/>
<path d="M96.8461 87.4065L32.8014 113.425C32.1593 113.746 31.5173 113.425 31.1963 112.782C30.8752 112.14 31.1963 111.497 31.8383 111.176L95.883 85.3186C96.5251 84.9974 97.1672 85.3186 97.4882 85.9611C97.8092 86.4429 97.4882 87.2459 96.8461 87.4065Z" fill="#F1F3F9"/>
<path d="M59.4467 109.891L35.3697 119.688C34.7277 120.01 34.0856 119.688 33.7646 119.046C33.4436 118.403 33.7646 117.761 34.4067 117.44L58.4836 107.643C59.1257 107.322 59.7677 107.643 60.0888 108.285C60.2493 108.928 60.0888 109.57 59.4467 109.891Z" fill="#F1F3F9"/>
<path d="M105.193 103.306L107.279 108.606C107.6 109.57 107.279 110.694 106.316 111.016L42.9136 136.713C41.9505 137.034 40.8269 136.713 40.5059 135.749L38.4192 130.288C38.0982 129.325 38.4192 128.2 39.3823 127.879L102.785 102.343C103.748 102.022 104.711 102.503 105.193 103.306Z" fill="#F1F3F9"/>
<path d="M110.169 115.512L112.255 120.812C112.576 121.776 112.255 122.9 111.292 123.221L47.8895 148.918C46.9264 149.24 45.8029 148.918 45.4818 147.955L43.2346 142.494C42.9136 141.53 43.2346 140.406 44.1977 140.085L107.6 114.549C108.563 114.227 109.687 114.709 110.169 115.512Z" fill="#F1F3F9"/>
<path d="M114.984 127.719L117.071 133.019C117.392 133.982 117.071 135.107 116.108 135.428L52.7048 161.125C51.7418 161.446 50.6182 161.125 50.2971 160.161L48.2105 154.861C47.8894 153.897 48.2105 152.773 49.1736 152.452L112.576 126.916C113.539 126.434 114.663 126.916 114.984 127.719Z" fill="#F1F3F9"/>
<path d="M45.9633 125.309L49.4946 134.143L42.9136 136.712C41.9505 137.034 40.8269 136.712 40.5059 135.749L38.4192 130.288C38.0982 129.324 38.4192 128.2 39.3823 127.879L45.9633 125.309Z" fill="#AAB2C5"/>
<path d="M44.3584 140.085L63.62 132.216L67.1512 141.049L47.8897 148.919C46.9266 149.24 45.803 148.919 45.482 147.955L43.2348 142.494C42.9138 141.691 43.3953 140.567 44.3584 140.085Z" fill="#D6DCE8"/>
<path d="M49.1736 152.291L51.9023 151.167L55.4336 160L52.7048 161.125C51.7418 161.446 50.6182 161.125 50.2971 160.161L48.2105 154.861C47.8894 153.897 48.2105 152.773 49.1736 152.291Z" fill="#D6DCE8"/>
<path d="M50.1365 69.5792C49.976 60.7458 42.7529 53.5186 33.7642 53.5186H33.6037C24.6149 53.5186 17.3918 60.9064 17.3918 69.9004C17.5524 78.8943 24.936 86.1216 33.9247 86.1216C38.9006 86.1216 43.2345 83.8731 46.2842 80.5004C48.8524 77.6095 50.297 73.9155 50.297 69.7398C50.1365 69.7398 50.1365 69.7398 50.1365 69.5792ZM33.9247 80.9822C27.8252 80.9822 22.8493 76.0034 22.8493 69.9004C22.8493 63.7973 27.8252 58.8186 33.9247 58.8186H34.0852C40.1847 58.8186 45.0001 63.6367 45.1606 69.5792C45.1606 69.7398 45.1606 69.7398 45.1606 69.9004C45.1606 72.6307 44.1975 75.2004 42.4319 77.1276C40.1847 79.5367 37.2955 80.9822 33.9247 80.9822Z" fill="#F1F3F9"/>
<path d="M50.1367 69.5792H44.8398C44.8398 63.6367 39.8639 58.8186 33.9249 58.8186H33.7644V53.5186H33.9249C42.7531 53.5186 49.9762 60.7458 50.1367 69.5792Z" fill="#D6DCE8"/>
<path d="M157.039 164.819L79.5107 135.909C78.2266 135.428 77.5846 133.982 78.0661 132.697L119.158 22.0398C119.639 20.7549 121.084 20.1125 122.368 20.5943L199.896 49.3428C201.18 49.8246 201.822 51.2701 201.34 52.5549L160.249 163.373C159.767 164.658 158.323 165.3 157.039 164.819Z" fill="white" stroke="#D6DCE8" stroke-width="2" stroke-miterlimit="10"/>
<path opacity="0.4" d="M146.766 70.382L140.506 67.9729L145.642 53.679L151.902 55.9274L146.766 70.382Z" fill="#E6EDF5"/>
<path d="M155.273 73.4334L148.852 71.0243L156.717 49.1819L162.977 51.591L155.273 73.4334Z" fill="#AAB2C5"/>
<path d="M172.127 79.3759L165.867 77.1274L176.14 48.3789L182.56 50.6274L172.127 79.3759Z" fill="#D6DCE8"/>
<path opacity="0.4" d="M180.153 82.2671L173.893 80.0186L176.621 72.1489L183.042 74.558L180.153 82.2671Z" fill="#E6EDF5"/>
<path d="M175.658 93.9909L110.811 69.9C110.169 69.7394 109.848 68.9363 110.008 68.2939C110.169 67.6515 110.972 67.3303 111.614 67.4909L176.461 91.5818C177.103 91.7424 177.424 92.5454 177.263 93.1879C176.942 93.8303 176.3 94.1515 175.658 93.9909Z" fill="#F1F3F9"/>
<path d="M173.25 100.255L108.403 76.1639C107.761 76.0033 107.44 75.2002 107.6 74.5578C107.761 73.9154 108.564 73.5942 109.206 73.7548L174.053 97.8457C174.695 98.0063 175.016 98.8093 174.855 99.4518C174.695 100.094 173.892 100.576 173.25 100.255Z" fill="#F1F3F9"/>
<path d="M171.004 106.519L106.156 82.4278C105.514 82.2672 105.193 81.4642 105.354 80.8217C105.514 80.1793 106.317 79.8581 106.959 80.0187L171.806 104.11C172.448 104.27 172.769 105.073 172.609 105.716C172.288 106.519 171.646 106.84 171.004 106.519Z" fill="#F1F3F9"/>
<path d="M128.307 97.8456L103.909 88.8516C103.267 88.691 102.946 87.888 103.106 87.2456C103.267 86.6031 104.069 86.2819 104.711 86.4425L129.109 95.4365C129.752 95.5971 130.073 96.4001 129.912 97.0425C129.591 97.685 128.949 98.0062 128.307 97.8456Z" fill="#DDDDDD"/>
<path d="M166.509 123.864L164.583 129.325C164.262 130.288 163.138 130.77 162.175 130.449L148.371 125.309L97.9699 106.519C97.0069 106.197 96.5253 105.073 96.8464 104.109L98.7725 98.6489C99.0935 97.6852 100.217 97.2034 101.18 97.5246L151.26 116.155L165.225 121.294C166.349 121.937 166.83 122.9 166.509 123.864Z" fill="#F1F3F9"/>
<path d="M161.854 136.23L159.928 141.691C159.607 142.655 158.483 143.136 157.52 142.815L152.865 141.048L93.4753 119.045C92.5122 118.724 92.0307 117.6 92.3517 116.636L94.2779 111.176C94.5989 110.212 95.7225 109.73 96.6856 110.051L156.236 132.215L160.73 133.982C161.693 134.303 162.175 135.267 161.854 136.23Z" fill="#F1F3F9"/>
<path d="M157.359 148.597L155.433 154.058C155.112 155.021 153.989 155.503 153.025 155.182L129.269 146.349L88.9807 131.412C88.0176 131.091 87.5361 129.967 87.8571 129.003L89.7833 123.543C90.1043 122.579 91.2279 122.097 92.191 122.418L133.443 137.676L156.236 146.188C157.199 146.509 157.68 147.634 157.359 148.597Z" fill="#F1F3F9"/>
<path d="M92.191 122.418L133.443 137.676L129.269 146.188L88.9807 131.252C88.0176 130.931 87.5361 129.806 87.8571 128.843L89.7833 123.382C90.1043 122.579 91.2279 122.097 92.191 122.418Z" fill="#D6DCE8"/>
<path d="M96.8464 104.27L98.7725 98.8093C99.0935 97.8456 100.217 97.3638 101.18 97.685L151.26 116.315L148.05 125.149L97.9699 106.518C97.0069 106.197 96.5253 105.234 96.8464 104.27Z" fill="#D6DCE8"/>
<path d="M156.236 132.215L152.865 141.048L93.4753 119.045C92.5122 118.724 92.0307 117.6 92.3517 116.636L94.2779 111.176C94.5989 110.212 95.7225 109.73 96.6856 110.051L156.236 132.215Z" fill="#D6DCE8"/>
<path d="M113.219 102.182L110.008 111.016L97.9699 106.519C97.0069 106.197 96.5253 105.073 96.8464 104.109L98.7725 98.6489C99.0935 97.6852 100.217 97.2034 101.18 97.5246L113.219 102.182Z" fill="#DDDDDD"/>
<path d="M96.6856 110.052L108.724 114.549L105.514 123.382L93.4753 118.885C92.5122 118.564 92.0307 117.44 92.3517 116.476L94.2779 111.015C94.7594 110.212 95.7225 109.731 96.6856 110.052Z" fill="#DDDDDD"/>
<path d="M92.191 122.418L104.229 126.915L101.019 135.749L88.9807 131.252C88.0176 130.931 87.5361 129.806 87.8571 128.843L89.7833 123.382C90.1043 122.579 91.2279 122.097 92.191 122.418Z" fill="#DDDDDD"/>
<path d="M143.235 137.997H60.5703C59.2862 137.997 58.1626 136.873 58.1626 135.588V17.382C58.1626 16.0971 59.2862 14.9729 60.5703 14.9729H143.235C144.519 14.9729 145.642 16.0971 145.642 17.382V135.427C145.803 136.873 144.679 137.997 143.235 137.997Z" fill="white" stroke="#D6DCE8" stroke-width="2" stroke-miterlimit="10"/>
<path d="M136.011 60.4227H66.9906C66.3486 60.4227 65.7065 59.9412 65.7065 59.1386C65.7065 58.4965 66.1881 57.8545 66.9906 57.8545H136.011C136.653 57.8545 137.295 58.336 137.295 59.1386C137.295 59.7807 136.653 60.4227 136.011 60.4227Z" fill="#F1F3F9"/>
<path d="M136.011 67.0077H66.9906C66.3486 67.0077 65.7065 66.5261 65.7065 65.7236C65.7065 65.0815 66.1881 64.4395 66.9906 64.4395H136.011C136.653 64.4395 137.295 64.921 137.295 65.7236C137.295 66.5261 136.653 67.0077 136.011 67.0077Z" fill="#F1F3F9"/>
<path d="M136.011 73.7533H66.9906C66.3486 73.7533 65.7065 73.2717 65.7065 72.4692C65.7065 71.8271 66.1881 71.1851 66.9906 71.1851H136.011C136.653 71.1851 137.295 71.6666 137.295 72.4692C137.295 73.2717 136.653 73.7533 136.011 73.7533Z" fill="#F1F3F9"/>
<path d="M135.851 98.9684H112.577C111.935 98.9684 111.292 98.4868 111.292 97.6843C111.292 97.0422 111.774 96.4001 112.577 96.4001H135.851C136.493 96.4001 137.135 96.8817 137.135 97.6843C136.975 98.3263 136.493 98.9684 135.851 98.9684Z" fill="#F1F3F9"/>
<path d="M98.2908 105.876C98.1303 97.0427 90.9072 89.8154 81.9185 89.8154H81.758C72.7692 89.8154 65.5461 97.2033 65.5461 106.197C65.5461 115.191 72.9297 122.579 81.9185 122.579C86.8944 122.579 91.2282 120.331 94.278 116.958C96.8462 114.067 98.2908 110.373 98.2908 106.197C98.2908 106.037 98.2908 105.876 98.2908 105.876ZM81.9185 117.118C75.819 117.118 70.8431 112.14 70.8431 106.037C70.8431 99.9336 75.819 94.9548 81.9185 94.9548H82.079C88.1785 94.9548 92.9939 99.773 93.1544 105.715C93.1544 105.876 93.1544 105.876 93.1544 106.037C93.1544 108.767 92.1913 111.337 90.4257 113.264C88.1785 115.673 85.2893 117.118 81.9185 117.118Z" fill="#F1F3F9"/>
<path d="M98.2909 105.876H92.994C92.8335 99.9336 88.0181 95.1154 81.9186 95.1154H81.7581V89.8154H81.9186C90.9073 89.8154 98.1304 96.8821 98.2909 105.876Z" fill="#D6DCE8"/>
<path d="M98.291 106.036C98.291 110.212 96.8464 113.906 94.2782 116.797L90.2654 113.424C92.031 111.497 92.9941 108.927 92.9941 106.197C92.9941 106.036 92.9941 106.036 92.9941 105.876H98.291V106.036Z" fill="#AAB2C5"/>
<path d="M106.959 99.4518C107.934 99.4518 108.724 98.6608 108.724 97.6851C108.724 96.7094 107.934 95.9185 106.959 95.9185C105.984 95.9185 105.193 96.7094 105.193 97.6851C105.193 98.6608 105.984 99.4518 106.959 99.4518Z" fill="#F1F3F9"/>
<path d="M135.851 106.356H112.577C111.935 106.356 111.292 105.875 111.292 105.072C111.292 104.43 111.774 103.788 112.577 103.788H135.851C136.493 103.788 137.135 104.269 137.135 105.072C136.975 105.714 136.493 106.356 135.851 106.356Z" fill="#F1F3F9"/>
<path d="M106.959 106.839C107.934 106.839 108.724 106.049 108.724 105.073C108.724 104.097 107.934 103.306 106.959 103.306C105.984 103.306 105.193 104.097 105.193 105.073C105.193 106.049 105.984 106.839 106.959 106.839Z" fill="#D6DCE8"/>
<path d="M135.851 113.744H112.577C111.935 113.744 111.292 113.262 111.292 112.46C111.292 111.818 111.774 111.176 112.577 111.176H135.851C136.493 111.176 137.135 111.657 137.135 112.46C136.975 113.102 136.493 113.744 135.851 113.744Z" fill="#F1F3F9"/>
<path d="M106.959 114.227C107.934 114.227 108.724 113.436 108.724 112.461C108.724 111.485 107.934 110.694 106.959 110.694C105.984 110.694 105.193 111.485 105.193 112.461C105.193 113.436 105.984 114.227 106.959 114.227Z" fill="#AAB2C5"/>
<path d="M66.188 51.591H137.135V22.8425L125.899 28.4637L119.96 32.6395L109.366 32.4789L100.056 37.2971L92.0306 38.4213L89.1414 41.6334L80.7947 46.9334L72.6085 48.3789L66.188 51.591Z" fill="#D6DCE8"/>
<path d="M66.188 51.5907H137.135V29.7483L125.899 33.924L119.96 37.1362L109.366 36.9756L100.056 40.6695L92.0306 41.6331L89.1414 43.8816L80.7947 48.0574L72.6085 49.1816L66.188 51.5907Z" fill="#F1F3F9"/>
<path d="M66.188 51.591H137.135V39.2244L125.899 41.6335L119.96 43.4001H109.366L100.056 45.3274L92.0306 45.9698L89.1414 47.2547L80.7947 49.5032L72.6085 50.1456L66.188 51.591Z" fill="#AAB2C5"/>
</svg>
