<svg width="17" height="16" viewBox="0 0 17 16" fill="none" xmlns="http://www.w3.org/2000/svg">
<path fill-rule="evenodd" clip-rule="evenodd" d="M12.2711 4.22879C11.4901 3.44774 10.2238 3.44774 9.44272 4.22879L8.49991 5.1716C8.23956 5.43195 7.81745 5.43194 7.5571 5.1716C7.29675 4.91125 7.29675 4.48914 7.5571 4.22879L8.49991 3.28598C9.80166 1.98423 11.9122 1.98423 13.214 3.28598C14.5157 4.58772 14.5157 6.69827 13.214 8.00002L12.2711 8.94283C12.0108 9.20318 11.5887 9.20318 11.3283 8.94283C11.068 8.68248 11.068 8.26037 11.3283 8.00002L12.2711 7.05721C13.0522 6.27616 13.0522 5.00983 12.2711 4.22879ZM4.72867 11.7713C3.94763 10.9902 3.94763 9.72388 4.72868 8.94283L5.67148 8.00002C5.93183 7.73967 5.93183 7.31756 5.67148 7.05721C5.41113 6.79686 4.98902 6.79686 4.72867 7.05721L3.78587 8.00002C2.48412 9.30177 2.48412 11.4123 3.78587 12.7141C5.08761 14.0158 7.19816 14.0158 8.49991 12.7141L9.44272 11.7713C9.70307 11.5109 9.70307 11.0888 9.44272 10.8284C9.18237 10.5681 8.76026 10.5681 8.49991 10.8284L7.5571 11.7713C6.77605 12.5523 5.50972 12.5523 4.72867 11.7713ZM10.8569 6.58581C11.1173 6.32546 11.1173 5.90335 10.8569 5.643C10.5966 5.38265 10.1745 5.38265 9.91412 5.643L6.14289 9.41424C5.88254 9.67459 5.88254 10.0967 6.14289 10.357C6.40324 10.6174 6.82535 10.6174 7.0857 10.357L10.8569 6.58581Z" fill="#28668B"/>
</svg>
