<svg width="97" height="48" viewBox="0 0 97 48" fill="none" xmlns="http://www.w3.org/2000/svg">
<path d="M48.4991 0C21.9901 0 0.5 10.7461 0.5 24C0.5 37.2539 21.9901 48 48.4991 48C75.0082 48 96.5 37.2539 96.5 24C96.5 10.7461 75.0065 0 48.4991 0ZM48.4991 44.212C24.083 44.212 4.28967 35.1626 4.28967 24C4.28967 12.8374 24.083 3.78974 48.4991 3.78974C72.9153 3.78974 92.7103 12.8374 92.7103 24C92.7103 35.1626 72.917 44.212 48.4991 44.212ZM42.4472 19.7903V16.0006H55.9938V19.7903H51.117V32.0045H47.3223V19.7903H42.4472ZM72.3345 16.0006V32.0045H68.5448L61.6716 22.4794V32.0045H57.8836V16.0006H61.6716L68.5448 25.5257V16.0006H72.3345ZM24.5538 32.0045V16.0006H28.3434L32.5531 22.476L36.7627 16.0006H40.5523V32.0045H36.7627V22.9501L33.884 27.3681H31.217L28.3384 22.9501V32.0045H24.5538Z" fill="black"/>
</svg>
