<svg width="23" height="22" viewBox="0 0 23 22" fill="none" xmlns="http://www.w3.org/2000/svg">
<path d="M14.2457 11C14.2457 12.5188 13.0145 13.75 11.4957 13.75C9.97692 13.75 8.74571 12.5188 8.74571 11C8.74571 9.48122 9.97692 8.25 11.4957 8.25C13.0145 8.25 14.2457 9.48122 14.2457 11Z" stroke="#666666" stroke-width="1.75024"/>
<path d="M10.0689 2.75L9.64261 5.36153C8.85173 5.6189 8.13369 6.03655 7.52724 6.57593L5.06438 5.63932L3.63757 8.11063L5.66587 9.76903C5.58166 10.1661 5.53736 10.5779 5.53736 11C5.53736 11.4221 5.58165 11.8338 5.66586 12.2309L3.63757 13.8893L5.06438 16.3606L7.53078 15.4272C8.13648 15.9651 8.85327 16.3816 9.64261 16.6385L10.0689 19.25H12.9225L13.3488 16.6385C14.1397 16.3811 14.8577 15.9634 15.4642 15.4241L17.927 16.3607L19.3538 13.8894L17.3255 12.231C17.4098 11.8338 17.4541 11.4221 17.4541 11C17.4541 10.5779 17.4098 10.1662 17.3256 9.76907L19.3538 8.11067L17.927 5.63937L15.4606 6.57279C14.8549 6.03493 14.1382 5.6184 13.3488 5.36153L12.9225 2.75H10.0689Z" stroke="#666666" stroke-width="1.75024"/>
</svg>
